HIERARCHY
ROOT hip
{
	OFFSET 0.000000 0.000000 0.000000 
	CHANNELS 6 Xposition Yposition Zposition Xrotation Zrotation Yrotation
	JOINT abdomen
	{
		OFFSET 0.000000 3.402643 0.000000 
		CHANNELS 3 Xrotation Zrotation Yrotation
		JOINT chest
		{
			OFFSET 0.000000 8.438565 -0.680529 
			CHANNELS 3 Xrotation Zrotation Yrotation
			JOINT neck
			{
				OFFSET 0.000000 10.207942 -0.272212 
				CHANNELS 3 Xrotation Zrotation Yrotation
				JOINT head
				{
					OFFSET 0.000000 3.130431 0.000000 
					CHANNELS 3 Xrotation Zrotation Yrotation
					End Site
					{
						OFFSET 0.000000 3.130435 0.000000 
					}
				}
			}
			JOINT lCollar
			{
				OFFSET 3.470700 6.669187 -0.816635 
				CHANNELS 3 Yrotation Zrotation Xrotation
				JOINT lShldr
				{
					OFFSET 3.198488 0.000000 0.000000 
					CHANNELS 3 Zrotation Yrotation Xrotation
					JOINT lForeArm
					{
						OFFSET 10.139888 0.000000 0.000000 
						CHANNELS 3 Yrotation Zrotation Xrotation
						JOINT lHand
						{
							OFFSET 8.370511 0.000000 0.000000 
							CHANNELS 3 Zrotation Yrotation Xrotation
							End Site
							{
								OFFSET 4.083176 0.000000 0.000000 
							}
						}
					}
				}
			}
			JOINT rCollar
			{
				OFFSET -3.470700 6.669187 -0.816635 
				CHANNELS 3 Yrotation Zrotation Xrotation
				JOINT rShldr
				{
					OFFSET -3.198488 0.000000 0.000000 
					CHANNELS 3 Zrotation Yrotation Xrotation
					JOINT rForeArm
					{
						OFFSET -10.139888 0.000000 0.000000 
						CHANNELS 3 Yrotation Zrotation Xrotation
						JOINT rHand
						{
							OFFSET -8.370511 0.000000 0.000000 
							CHANNELS 3 Zrotation Yrotation Xrotation
							End Site
							{
								OFFSET -4.083176 0.000000 0.000000 
							}
						}
					}
				}
			}
		}
	}
	JOINT lThigh
	{
		OFFSET 5.308129 -1.633274 1.361059 
		CHANNELS 3 Xrotation Zrotation Yrotation
		JOINT lShin
		{
			OFFSET -2.041588 -20.007561 0.000000 
			CHANNELS 3 Xrotation Zrotation Yrotation
			JOINT lFoot
			{
				OFFSET 0.000000 -19.190928 -1.224953 
				CHANNELS 3 Xrotation Yrotation Zrotation
				End Site
				{
					OFFSET 0.000000 -2.449906 4.627600 
				}
			}
		}
	}
	JOINT rThigh
	{
		OFFSET -5.308129 -1.633274 1.361059 
		CHANNELS 3 Xrotation Zrotation Yrotation
		JOINT rShin
		{
			OFFSET 2.041588 -20.007561 0.000000 
			CHANNELS 3 Xrotation Zrotation Yrotation
			JOINT rFoot
			{
				OFFSET 0.000000 -19.190928 -1.224953 
				CHANNELS 3 Xrotation Yrotation Zrotation
				End Site
				{
					OFFSET 0.000000 -2.449906 4.627600 
				}
			}
		}
	}
}
MOTION
Frames: 15
Frame Time: 0.016667
4.632009 41.538631 -2.101962 2.168580 9.524550 -91.299599 -15.237300 2.768990 1.513570 13.168500 2.169360 0.617415 1.726210 -6.918420 22.485399 8.771080 4.087360 11.210600 2.000000 -2.000000 0.000000 -104.764999 -51.991100 -110.454002 78.223198 -0.242753 0.133887 0.049324 -0.038508 -150.807999 -2.000000 2.000000 0.000000 75.697098 28.208000 -165.501999 -122.041000 0.147495 0.097859 179.908997 179.897995 3.713100 -36.532398 9.894876 -0.363160 44.626484 2.009586 3.239026 -9.823083 -2.355798 1.728579 -32.889698 -3.129807 4.343906 46.724644 -1.640682 -3.453016 -23.640438 1.776009 2.076801 
4.772667 41.501953 -2.123328 1.941730 9.682040 -91.538300 -15.327600 2.733840 1.308170 12.981800 2.371720 0.495513 1.717470 -7.064300 22.821699 8.770840 4.058170 11.374200 2.000000 -2.000000 0.000000 -108.805000 -54.516998 -105.889999 77.910698 -0.243483 0.133733 0.048801 -0.036327 -150.007996 -2.000000 2.000000 0.000000 75.016899 29.347300 -168.292999 -123.731003 0.144352 0.095826 179.912003 179.901001 5.041220 -36.345913 9.782055 0.133695 43.839359 2.058126 3.179801 -10.247388 -1.875379 1.857684 -33.421204 -3.351923 4.273478 46.970188 -1.614002 -3.454262 -23.684954 2.116680 2.227973 
4.893150 41.474274 -2.135753 1.724490 9.819860 -91.843803 -15.397100 2.636360 1.130630 12.814900 2.486920 0.384996 1.758120 -7.344930 23.167299 8.828960 3.979850 11.518300 2.000000 -2.000000 0.000000 66.807098 -123.561996 78.763100 77.324799 -0.244849 0.133433 0.048068 -0.033016 -148.796997 -2.000000 2.000000 0.000000 74.502098 30.310400 -170.834000 -125.274002 0.141535 0.093890 179.912994 179.903000 5.812720 -36.121693 9.728993 0.653867 43.132767 2.080665 3.146571 -10.688265 -1.500914 1.939103 -33.891792 -3.533491 4.255857 47.176052 -1.611451 -3.466791 -23.711723 2.393736 2.372190 
4.996288 41.458839 -2.138090 1.507080 9.957560 -92.208900 -15.465200 2.431940 0.972616 12.698200 2.389480 0.295584 1.839070 -7.646590 23.489401 8.906730 3.911120 11.674100 2.000000 -2.000000 0.000000 62.518299 -122.216003 83.188904 76.553299 -0.246642 0.133017 0.047325 -0.029261 -147.429993 -2.000000 2.000000 0.000000 -105.739998 148.932999 6.989990 -126.651001 0.139065 0.092098 179.912994 179.904007 6.105680 -35.922356 9.703403 1.039900 42.456024 2.097436 3.119990 -10.833918 -1.334607 2.008981 -34.314987 -3.672414 4.328093 47.285198 -1.587981 -3.482978 -23.718218 2.661227 2.486681 
5.086113 41.452278 -2.140808 1.309540 10.143900 -92.541199 -15.533200 2.214760 0.808392 12.601200 2.263190 0.211399 1.852470 -7.865700 23.762699 8.965070 3.862010 11.791100 2.000000 -2.000000 0.000000 58.541500 -121.426003 87.117699 75.762299 -0.248475 0.132566 0.046781 -0.026163 -146.307007 -2.000000 2.000000 0.000000 -105.885002 148.380997 5.135880 -127.822998 0.136998 0.090527 179.914001 179.904007 6.301000 -35.980419 9.672900 1.162868 42.121742 2.110621 3.093685 -10.823431 -1.351130 2.011764 -34.739014 -3.753531 4.455233 47.364727 -1.576866 -3.505173 -23.680191 2.860156 2.601209 
5.162458 41.449314 -2.149627 1.161410 10.330000 -92.760300 -15.591800 2.044770 0.631672 12.523400 2.185400 0.111794 1.787930 -7.981980 23.998400 8.955200 3.852360 11.887200 2.000000 -2.000000 0.000000 55.089699 -121.123001 90.372498 75.010300 -0.250211 0.132114 0.046443 -0.024030 -145.535004 -2.000000 2.000000 0.000000 -106.030998 148.065002 3.525330 -128.731003 0.135418 0.089281 179.914001 179.895004 6.691640 -36.169353 9.628181 1.104719 41.985897 2.096554 3.101386 -10.672523 -1.440272 2.012336 -35.100155 -3.798803 4.605055 47.414417 -1.572511 -3.521437 -23.605001 2.974125 2.648820 
5.224818 41.450466 -2.169466 1.072540 10.467000 -92.910301 -15.611700 1.938410 0.458732 12.464900 2.165740 0.024415 1.714270 -8.091090 24.208000 8.945340 3.842700 11.983400 2.000000 -2.000000 0.000000 52.278900 -121.230003 92.873901 74.326698 -0.251784 0.131683 0.046252 -0.022731 -145.065994 -2.000000 2.000000 0.000000 -106.185997 147.973999 2.119300 -129.414001 0.134242 0.088326 179.904999 179.895996 7.101800 -36.300968 9.625128 1.112437 41.838943 2.096541 3.095056 -10.581150 -1.501184 2.004669 -35.356895 -3.749951 4.793584 47.413677 -1.570851 -3.501453 -23.473280 2.932438 2.616820 
5.272471 41.461411 -2.197528 0.983377 10.535600 -93.091103 -15.611300 1.802330 0.345201 12.455800 2.040000 -0.036213 1.700720 -8.183890 24.371300 8.955050 3.832900 12.050900 2.000000 -2.000000 0.000000 50.294399 -121.611000 94.574699 73.740799 -0.253128 0.131298 0.046134 -0.021891 -144.764008 -2.000000 2.000000 0.000000 -106.235001 148.108002 0.956858 -129.951004 0.133326 0.087566 179.904999 179.895996 7.218980 -36.317692 9.672242 1.245966 41.670868 2.116239 3.077033 -10.540618 -1.525252 2.003958 -35.522682 -3.623094 5.091885 47.404125 -1.562398 -3.498080 -23.311222 2.821424 2.562965 
5.304375 41.480587 -2.227376 0.834540 10.594600 -93.351402 -15.580700 1.586100 0.295191 12.505800 1.788850 -0.057546 1.766320 -8.267500 24.517200 9.003990 3.832510 12.123200 2.000000 -2.000000 0.000000 49.194500 -122.157997 95.473198 73.272003 -0.254201 0.130981 0.046057 -0.021322 -144.557999 -2.000000 2.000000 0.000000 -106.167999 148.438004 0.106432 -130.391006 0.132582 0.086938 179.904999 179.895996 7.092030 -36.221886 9.663300 1.441695 41.444317 2.131955 3.058289 -10.447873 -1.438466 2.057870 -35.635151 -3.512338 5.483457 47.345428 -1.567530 -3.501867 -23.085958 2.731446 2.531595 
5.322799 41.504906 -2.255325 0.645900 10.653600 -93.589996 -15.540200 1.306560 0.242605 12.595100 1.450730 -0.075854 1.861730 -8.380250 24.657101 9.072420 3.822240 12.185500 2.000000 -2.000000 0.000000 48.901798 -122.752998 95.619904 72.949799 -0.254936 0.130757 0.046032 -0.021133 -144.490005 -2.000000 2.000000 0.000000 -106.031998 148.876007 -0.392700 -130.664001 0.132122 0.086544 179.904999 179.895996 7.013910 -36.119831 9.556270 1.539677 41.189297 2.136131 3.046163 -10.329319 -1.239840 2.101052 -35.748692 -3.478876 5.865341 47.286312 -1.573552 -3.496556 -22.903568 2.680063 2.537679 
5.333100 41.529106 -2.287814 0.487035 10.732000 -93.756699 -15.500200 1.083390 0.174052 12.693700 1.151190 -0.100344 1.927640 -8.493080 24.800100 9.121280 3.812130 12.256300 2.000000 -2.000000 0.000000 49.173000 -123.388000 95.190399 72.783699 -0.255315 0.130641 0.046068 -0.021404 -144.587997 -2.000000 2.000000 0.000000 -105.954002 149.382996 -0.569743 -130.800995 0.131892 0.086347 179.904999 179.895996 6.955310 -36.036228 9.423790 1.496988 40.952866 2.153586 3.028549 -10.188598 -0.979851 2.162683 -35.863621 -3.461219 6.164696 47.217972 -1.573724 -3.498498 -22.718254 2.666507 2.522496 
5.337672 41.552013 -2.328469 0.407625 10.810300 -93.829300 -15.480200 0.932826 0.105053 12.762700 0.909490 -0.114700 1.983910 -8.635200 24.943100 9.170060 3.792280 12.316300 2.000000 -2.000000 0.000000 49.891602 -124.061996 94.348999 72.764198 -0.255359 0.130627 0.046183 -0.022243 -144.891006 -2.000000 2.000000 0.000000 -105.945999 149.968994 -0.522381 -130.820999 0.131859 0.086319 179.914001 179.895004 6.701410 -36.010864 9.340478 1.335994 40.757164 2.150164 3.022186 -10.061335 -0.729771 2.218893 -35.934528 -3.402435 6.358385 47.129707 -1.573886 -3.491478 -22.553999 2.643842 2.502396 
5.338021 41.572605 -2.378662 0.387842 10.888400 -93.842201 -15.479800 0.801869 0.060567 12.792500 0.657975 -0.128767 2.041900 -8.783330 25.017599 9.218600 3.743260 12.343800 2.000000 -2.000000 0.000000 50.980202 -124.775002 93.187103 72.861900 -0.255137 0.130696 0.046383 -0.023624 -145.389008 -2.000000 2.000000 0.000000 -105.898003 150.634003 -0.348271 -130.761993 0.131958 0.086403 179.914001 179.904007 6.203340 -35.997448 9.299719 1.143188 40.579571 2.162489 3.001205 -9.920565 -0.555654 2.270313 -35.974663 -3.307397 6.495354 47.051674 -1.571333 -3.492672 -22.398115 2.555089 2.464081 
5.336527 41.590363 -2.440874 0.358090 10.956800 -93.827797 -15.489200 0.677741 0.034267 12.792700 0.435425 -0.127723 2.061500 -8.878250 25.040800 9.257510 3.713770 12.353500 2.000000 -2.000000 0.000000 52.321899 -125.527000 91.808502 72.988800 -0.254847 0.130785 0.046667 -0.025462 -146.052994 -2.000000 2.000000 0.000000 -105.820999 151.328003 -0.071512 -130.595993 0.132237 0.086643 179.912994 179.903000 5.666230 -35.993862 9.282164 1.003803 40.423103 2.164677 3.005542 -9.788696 -0.424910 2.300287 -36.012115 -3.211690 6.603791 46.992977 -1.576271 -3.496362 -22.242489 2.458785 2.432644 
5.332448 41.604912 -2.513277 0.318355 11.005700 -93.756798 -15.479400 0.639248 0.014756 12.792800 0.377368 -0.129574 2.043680 -9.019280 24.989901 9.266830 3.655350 12.319500 2.000000 -2.000000 0.000000 -126.385002 -53.671902 -89.656303 73.076698 -0.254647 0.130846 0.047006 -0.027484 -146.785004 -2.000000 2.000000 0.000000 -105.832001 152.022003 0.239322 -130.313004 0.132714 0.087050 179.912003 179.901001 5.138880 -35.929184 9.240978 0.936850 40.168308 2.162591 2.991166 -9.618037 -0.339350 2.329794 -36.027210 -3.142479 6.710734 46.993477 -1.571170 -3.504107 -22.148489 2.347021 2.382913 
